HIERARCHY
ROOT Model
{
	OFFSET 0 0 0
	CHANNELS 6 Xposition Yposition Zposition Zrotation Xrotation Yrotation
	JOINT Model1
	{
		OFFSET 0 -2.25479 2.99383
		CHANNELS 3 Zrotation Xrotation Yrotation
		JOINT Model2
		{
			OFFSET 12.111 0 0
			CHANNELS 3 Zrotation Xrotation Yrotation
			JOINT Model3
			{
				OFFSET 11.5502 0 0
				CHANNELS 3 Zrotation Xrotation Yrotation
				JOINT Model4
				{
					OFFSET 11.781 0 0
					CHANNELS 3 Zrotation Xrotation Yrotation
					JOINT Model5
					{
						OFFSET 20.0601 0 0
						CHANNELS 3 Zrotation Xrotation Yrotation
						JOINT Model6
						{
							OFFSET 11.1962 0 0
							CHANNELS 3 Zrotation Xrotation Yrotation
							End Site
							{
								OFFSET 0 0 0
							}
						}
					}
					JOINT Model7
					{
						OFFSET 10.8223 0.417538 3.51114
						CHANNELS 3 Zrotation Xrotation Yrotation
						JOINT Model8
						{
							OFFSET -6.07944 0 0
							CHANNELS 3 Zrotation Xrotation Yrotation
							JOINT Model9
							{
								OFFSET -0.27742 10.39 -0.0512447
								CHANNELS 3 Zrotation Xrotation Yrotation
								JOINT Model10
								{
									OFFSET -3.4391 -0.282043 1.86678
									CHANNELS 3 Zrotation Xrotation Yrotation
									JOINT Model11
									{
										OFFSET 13.0269 0 0
										CHANNELS 3 Zrotation Xrotation Yrotation
										JOINT Model12
										{
											OFFSET 10.8866 0 0
											CHANNELS 3 Zrotation Xrotation Yrotation
											JOINT Model13
											{
												OFFSET 16.7317 0 0
												CHANNELS 3 Zrotation Xrotation Yrotation
												JOINT Model14
												{
													OFFSET 11.8292 0 0
													CHANNELS 3 Zrotation Xrotation Yrotation
													JOINT Model15
													{
														OFFSET 4.82751 -3.73566 -0.836517
														CHANNELS 3 Zrotation Xrotation Yrotation
														JOINT Model16
														{
															OFFSET 3.75311 -0.0582924 -0.0186462
															CHANNELS 3 Zrotation Xrotation Yrotation
															JOINT Model17
															{
																OFFSET 2.88689 0.0192337 0.0148029
																CHANNELS 3 Zrotation Xrotation Yrotation
																End Site
																{
																	OFFSET 0 0 0
																}
															}
														}
													}
													JOINT Model18
													{
														OFFSET 9.72197 -3.06458 0.238768
														CHANNELS 3 Zrotation Xrotation Yrotation
														JOINT Model19
														{
															OFFSET 4.61131 0 0
															CHANNELS 3 Zrotation Xrotation Yrotation
															JOINT Model20
															{
																OFFSET 2.8969 -1.14441e-005 0
																CHANNELS 3 Zrotation Xrotation Yrotation
																End Site
																{
																	OFFSET 0 0 0
																}
															}
														}
													}
													JOINT Model21
													{
														OFFSET 9.54431 -0.745064 0.588938
														CHANNELS 3 Zrotation Xrotation Yrotation
														JOINT Model22
														{
															OFFSET 5.33978 0 0
															CHANNELS 3 Zrotation Xrotation Yrotation
															JOINT Model23
															{
																OFFSET 3.03619 1.14441e-005 0
																CHANNELS 3 Zrotation Xrotation Yrotation
																End Site
																{
																	OFFSET 0 0 0
																}
															}
														}
													}
													JOINT Model24
													{
														OFFSET 9.47758 1.51286 0.485121
														CHANNELS 3 Zrotation Xrotation Yrotation
														JOINT Model25
														{
															OFFSET 4.96136 1.14441e-005 0
															CHANNELS 3 Zrotation Xrotation Yrotation
															JOINT Model26
															{
																OFFSET 2.51965 0 0
																CHANNELS 3 Zrotation Xrotation Yrotation
																End Site
																{
																	OFFSET 0 0 0
																}
															}
														}
													}
													JOINT Model27
													{
														OFFSET 9.34247 3.34117 -0.239281
														CHANNELS 3 Zrotation Xrotation Yrotation
														JOINT Model28
														{
															OFFSET 3.28259 2.67029e-005 0
															CHANNELS 3 Zrotation Xrotation Yrotation
															JOINT Model29
															{
																OFFSET 2.1292 0 0
																CHANNELS 3 Zrotation Xrotation Yrotation
																End Site
																{
																	OFFSET 0 0 0
																}
															}
														}
													}
												}
											}
										}
									}
								}
							}
						}
					}
					JOINT Model30
					{
						OFFSET 10.8223 0.4179 -3.51107
						CHANNELS 3 Zrotation Xrotation Yrotation
						JOINT Model31
						{
							OFFSET 6.07944 0 0
							CHANNELS 3 Zrotation Xrotation Yrotation
							JOINT Model32
							{
								OFFSET 0.27742 -10.39 0.0512447
								CHANNELS 3 Zrotation Xrotation Yrotation
								JOINT Model33
								{
									OFFSET 3.4391 0.282043 -1.86678
									CHANNELS 3 Zrotation Xrotation Yrotation
									JOINT Model34
									{
										OFFSET -13.0269 0 0
										CHANNELS 3 Zrotation Xrotation Yrotation
										JOINT Model35
										{
											OFFSET -10.8866 0 0
											CHANNELS 3 Zrotation Xrotation Yrotation
											JOINT Model36
											{
												OFFSET -16.7317 0 0
												CHANNELS 3 Zrotation Xrotation Yrotation
												JOINT Model37
												{
													OFFSET -11.8292 0 0
													CHANNELS 3 Zrotation Xrotation Yrotation
													JOINT Model38
													{
														OFFSET -4.82751 3.73566 0.836516
														CHANNELS 3 Zrotation Xrotation Yrotation
														JOINT Model39
														{
															OFFSET -3.75311 0.0582848 0.0186434
															CHANNELS 3 Zrotation Xrotation Yrotation
															JOINT Model40
															{
																OFFSET -2.88687 -0.0192375 -0.014802
																CHANNELS 3 Zrotation Xrotation Yrotation
																End Site
																{
																	OFFSET 0 0 0
																}
															}
														}
													}
													JOINT Model41
													{
														OFFSET -9.72198 3.06459 -0.23877
														CHANNELS 3 Zrotation Xrotation Yrotation
														JOINT Model42
														{
															OFFSET -4.6113 0 0
															CHANNELS 3 Zrotation Xrotation Yrotation
															JOINT Model43
															{
																OFFSET -2.89691 0 0
																CHANNELS 3 Zrotation Xrotation Yrotation
																End Site
																{
																	OFFSET 0 0 0
																}
															}
														}
													}
													JOINT Model44
													{
														OFFSET -9.54431 0.745064 -0.588939
														CHANNELS 3 Zrotation Xrotation Yrotation
														JOINT Model45
														{
															OFFSET -5.33978 0 0
															CHANNELS 3 Zrotation Xrotation Yrotation
															JOINT Model46
															{
																OFFSET -3.03619 -1.52588e-005 0
																CHANNELS 3 Zrotation Xrotation Yrotation
																End Site
																{
																	OFFSET 0 0 0
																}
															}
														}
													}
													JOINT Model47
													{
														OFFSET -9.4776 -1.51286 -0.485122
														CHANNELS 3 Zrotation Xrotation Yrotation
														JOINT Model48
														{
															OFFSET -4.96136 -1.52588e-005 0
															CHANNELS 3 Zrotation Xrotation Yrotation
															JOINT Model49
															{
																OFFSET -2.51965 0 0
																CHANNELS 3 Zrotation Xrotation Yrotation
																End Site
																{
																	OFFSET 0 0 0
																}
															}
														}
													}
													JOINT Model50
													{
														OFFSET -9.34247 -3.34118 0.239278
														CHANNELS 3 Zrotation Xrotation Yrotation
														JOINT Model51
														{
															OFFSET -3.28259 -1.90735e-005 0
															CHANNELS 3 Zrotation Xrotation Yrotation
															JOINT Model52
															{
																OFFSET -2.12921 0 0
																CHANNELS 3 Zrotation Xrotation Yrotation
																End Site
																{
																	OFFSET 0 0 0
																}
															}
														}
													}
												}
											}
										}
									}
								}
							}
						}
					}
				}
			}
		}
	}
	JOINT Model53
	{
		OFFSET 4.38025 -2.14632 -1.11516
		CHANNELS 3 Zrotation Xrotation Yrotation
		JOINT Model54
		{
			OFFSET 0 0 4.94999
			CHANNELS 3 Zrotation Xrotation Yrotation
			JOINT Model55
			{
				OFFSET 18.5642 0 0
				CHANNELS 3 Zrotation Xrotation Yrotation
				JOINT Model56
				{
					OFFSET 21.2884 0 1.14441e-005
					CHANNELS 3 Zrotation Xrotation Yrotation
					JOINT Model57
					{
						OFFSET 30.261 0 0
						CHANNELS 3 Zrotation Xrotation Yrotation
						JOINT Model58
						{
							OFFSET 11.7259 0 0
							CHANNELS 3 Zrotation Xrotation Yrotation
							JOINT Model59
							{
								OFFSET 10.682 0 0
								CHANNELS 3 Zrotation Xrotation Yrotation
								End Site
								{
									OFFSET 0 0 0
								}
							}
						}
					}
				}
			}
		}
	}
	JOINT Model60
	{
		OFFSET -4.38025 -2.14632 -1.11516
		CHANNELS 3 Zrotation Xrotation Yrotation
		JOINT Model61
		{
			OFFSET 0 0 -4.94999
			CHANNELS 3 Zrotation Xrotation Yrotation
			JOINT Model62
			{
				OFFSET -18.5642 0 0
				CHANNELS 3 Zrotation Xrotation Yrotation
				JOINT Model63
				{
					OFFSET -21.2884 0 -1.14441e-005
					CHANNELS 3 Zrotation Xrotation Yrotation
					JOINT Model64
					{
						OFFSET -30.261 0 0
						CHANNELS 3 Zrotation Xrotation Yrotation
						JOINT Model65
						{
							OFFSET -11.7259 0 0
							CHANNELS 3 Zrotation Xrotation Yrotation
							JOINT Model66
							{
								OFFSET -10.682 0 0
								CHANNELS 3 Zrotation Xrotation Yrotation
								End Site
								{
									OFFSET 0 0 0
								}
							}
						}
					}
				}
			}
		}
	}
}
MOTION
Frames: 4
Frame Time: 0.033333
-535.422 96.4928 31.6128 120.29 9.41 87.225 -180 4.29621e-031 -90 8.21773 -1.13213 -1.30356 16.4131 -2.43916 -2.43267 16.4131 -2.43874 -2.43279 56.9967 -1.32999 31.6332 -79.6012 -4.25906 -6.41227 120.092 75.5343 58.4939 3.23985 8.80696 2.20558 -167.277 84.4999 48.8109 -179.502 1.29788 23.1542 2.9617e-006 15.8078 3.13116e-005 -91.0435 8.70873 0.616176 1.07522e-006 12.6531 1.33412e-006 -11.4776 2.84923 -27.768 -72.0648 39.0385 39.3397 33.3638 2.10362 14.835 0.588947 0.308273 6.35287 -99.6409 81.413 100.35 -0.018141 2.78236e-005 -0.117315 -0.124139 0.00241118 -0.799296 -79.8382 79.5773 80.5374 -0.00022581 -0.000220874 2.20975e-005 -0.000956271 0.00012296 -2.74522e-005 -66.7416 80.4058 67.2171 -0.000437169 1.59908e-005 -2.74157e-005 -0.000136654 -0.00010923 -5.47703e-005 -6.42159 81.2158 8.01779 -0.000218609 1.69344e-005 0.000212054 0.000901526 -0.000184766 -0.000218683 -59.9282 75.5373 58.5147 0.432867 1.61509 0.732783 -167.277 84.4999 48.8109 -177.091 -22.7677 -7.95104 1.03565e-005 -6.01943 2.80391e-005 -72.2912 13.0348 0.595084 -7.85844e-006 18.9323 3.67104e-006 8.19632 -0.910936 -12.6661 -72.0648 39.0385 39.3397 33.3638 2.10361 14.835 0.588946 0.308273 6.35287 -99.6409 81.413 100.35 -0.0181409 3.00645e-005 -0.117315 -0.124139 0.00241111 -0.799296 -79.8382 79.5773 80.5374 -0.000260633 -0.000218579 2.35931e-005 -0.000956209 0.000122979 -2.72899e-005 -66.7416 80.4058 67.2171 -0.000437118 1.48679e-005 -2.72986e-005 -0.000136585 -0.000109301 -5.46115e-005 -6.42159 81.2158 8.01779 -0.000218551 1.95637e-005 0.000212319 0.000901604 -0.000191266 -0.000218536 0.000811311 0.56661 89.91 -66.7598 4.97936 -19.3484 2.2623e-006 6.00976 -1.06446e-007 94.7408 0.209516 -0.00820128 3.15991e-008 0.192298 4.91122e-009 -47.5254 1.98658 -1.71548 -35.4947 2.27726e-007 2.57482e-007 -180 -0.566579 -90.09 -68.2796 1.43435 -12.2881 3.82036e-007 1.02612 1.01096e-009 89.2036 2.87388 -0.00794386 4.96879e-007 4.18778 3.02204e-007 -28.044 -0.117561 1.00574 -37.3106 0.704099 -0.171772 
-535.487 96.7458 31.6584 120.001 9.46633 87.0912 -180 4.29621e-031 -90 8.12223 -1.20946 -1.34178 16.2202 -2.59652 -2.50011 16.2202 -2.5961 -2.50023 56.3628 -1.57769 31.1429 -80.3073 -3.82914 -6.61392 120.092 75.5343 58.4939 4.52034 8.69217 1.85872 -167.277 84.4999 48.8109 -179.461 1.3581 24.2794 3.21059e-006 15.3687 3.12447e-005 -87.6697 8.56799 0.615173 1.08141e-006 12.3936 1.33278e-006 -9.2697 2.07137 -24.9902 -72.0648 39.0385 39.3397 33.3638 2.10362 14.835 0.588947 0.308273 6.35287 -99.6409 81.413 100.35 -0.018141 2.78236e-005 -0.117315 -0.124139 0.00241118 -0.799296 -79.8382 79.5773 80.5374 -0.00022581 -0.000220874 2.20975e-005 -0.000956271 0.00012296 -2.74522e-005 -66.7416 80.4058 67.2171 -0.000437169 1.59908e-005 -2.74157e-005 -0.000136654 -0.00010923 -5.47703e-005 -6.42159 81.2158 8.01779 -0.000218609 1.69344e-005 0.000212054 0.000901526 -0.000184766 -0.000218683 -59.9282 75.5373 58.5147 0.636887 1.6197 0.696002 -167.277 84.4999 48.8109 -175.275 -22.3548 -6.16537 1.02912e-005 -5.88671 2.80323e-005 -76.6424 12.9214 0.607268 -7.84933e-006 18.7978 3.6681e-006 8.29093 -1.1151 -15.283 -72.0648 39.0385 39.3397 33.3638 2.10361 14.835 0.588946 0.308273 6.35287 -99.6409 81.413 100.35 -0.0181409 3.00645e-005 -0.117315 -0.124139 0.00241111 -0.799296 -79.8382 79.5773 80.5374 -0.000260633 -0.000218579 2.35931e-005 -0.000956209 0.000122979 -2.72899e-005 -66.7416 80.4058 67.2171 -0.000437118 1.48679e-005 -2.72986e-005 -0.000136585 -0.000109301 -5.46115e-005 -6.42159 81.2158 8.01779 -0.000218551 1.95637e-005 0.000212319 0.000901604 -0.000191266 -0.000218536 0.000811311 0.56661 89.91 -66.7269 4.79096 -19.5384 2.26176e-006 5.71969 -1.0639e-007 94.2964 0.410203 -0.00820144 3.15733e-008 0.493238 4.91137e-009 -47.3638 2.20959 -1.89368 -35.4947 2.6331e-007 3.22018e-007 -180 -0.566579 -90.09 -69.8413 1.70147 -12.3996 3.82034e-007 1.16099 1.01101e-009 89.6512 2.86668 -0.00794381 4.96936e-007 4.17697 3.022e-007 -27.1061 -0.507743 1.49499 -35.9095 0.586842 -0.0657773 
-535.643 97.036 31.7235 119.524 9.49241 87.1085 -180 4.29621e-031 -90 7.99467 -1.26564 -1.3529 15.9639 -2.70733 -2.51756 15.9639 -2.70691 -2.51768 54.9559 -1.95039 31.1605 -81.4189 -2.95293 -7.18679 120.092 75.5343 58.4939 6.22594 9.46881 1.62922 -167.277 84.4999 48.8109 -178.909 1.58286 25.9941 3.54924e-006 14.7682 3.11566e-005 -82.5866 9.01701 0.611188 1.06688e-006 13.0023 1.33597e-006 -8.07111 1.6549 -23.1894 -72.0648 39.0385 39.3397 33.3638 2.10362 14.835 0.588947 0.308273 6.35287 -99.6409 81.413 100.35 -0.018141 2.78236e-005 -0.117315 -0.124139 0.00241118 -0.799296 -79.8382 79.5773 80.5374 -0.00022581 -0.000220874 2.20975e-005 -0.000956271 0.00012296 -2.74522e-005 -66.7416 80.4058 67.2171 -0.000437169 1.59908e-005 -2.74157e-005 -0.000136654 -0.00010923 -5.47703e-005 -6.42159 81.2158 8.01779 -0.000218609 1.69344e-005 0.000212054 0.000901526 -0.000184766 -0.000218683 -59.9282 75.5373 58.5147 0.0665924 1.68771 0.823088 -167.277 84.4999 48.8109 -173.903 -22.2693 -5.06938 1.03654e-005 -6.03754 2.804e-005 -80.5529 13.3707 0.617398 -7.89765e-006 19.5092 3.68395e-006 8.49513 -1.38782 -18.491 -72.0648 39.0385 39.3397 33.3638 2.10361 14.835 0.588946 0.308273 6.35287 -99.6409 81.413 100.35 -0.0181409 3.00645e-005 -0.117315 -0.124139 0.00241111 -0.799296 -79.8382 79.5773 80.5374 -0.000260633 -0.000218579 2.35931e-005 -0.000956209 0.000122979 -2.72899e-005 -66.7416 80.4058 67.2171 -0.000437118 1.48679e-005 -2.72986e-005 -0.000136585 -0.000109301 -5.46115e-005 -6.42159 81.2158 8.01779 -0.000218551 1.95637e-005 0.000212319 0.000901604 -0.000191266 -0.000218536 0.000811311 0.56661 89.91 -66.6299 4.4761 -19.9447 2.26086e-006 5.23838 -1.06305e-007 93.7911 0.478975 -0.00820151 3.15644e-008 0.5963 4.91146e-009 -48.5134 3.25831 -2.72293 -35.4947 2.93451e-007 4.08812e-007 -180 -0.566579 -90.09 -72.0777 2.01099 -12.2713 3.82031e-007 1.28013 1.01105e-009 90.9843 2.58002 -0.00794192 4.99209e-007 3.74702 3.02043e-007 -30.9425 -0.246914 0.971233 -35.43 -0.0659176 0.00866011 
-535.865 97.1791 31.7439 118.903 9.46756 87.2524 -180 4.29621e-031 -90 7.91439 -1.28573 -1.26981 15.8051 -2.73429 -2.35139 15.8051 -2.73387 -2.35151 52.6978 -2.74232 31.3373 -82.6034 -2.40951 -7.5546 120.092 75.5343 58.4939 6.1347 10.5931 1.93812 -167.277 84.4999 48.8109 -177.967 1.84665 26.0083 3.4561e-006 14.9337 3.11805e-005 -79.7706 8.13868 0.605473 1.099e-006 11.6529 1.32912e-006 -9.32653 1.79898 -21.868 -72.0648 39.0385 39.3397 33.3638 2.10362 14.835 0.588947 0.308273 6.35287 -99.6409 81.413 100.35 -0.018141 2.78236e-005 -0.117315 -0.124139 0.00241118 -0.799296 -79.8382 79.5773 80.5374 -0.00022581 -0.000220874 2.20975e-005 -0.000956271 0.00012296 -2.74522e-005 -66.7416 80.4058 67.2171 -0.000437169 1.59908e-005 -2.74157e-005 -0.000136654 -0.00010923 -5.47703e-005 -6.42159 81.2158 8.01779 -0.000218609 1.69344e-005 0.000212054 0.000901526 -0.000184766 -0.000218683 -59.9282 75.5373 58.5147 -0.170838 1.34128 0.761295 -167.277 84.4999 48.8109 -174.58 -22.326 -5.40991 1.0388e-005 -6.0835 2.80424e-005 -80.4661 13.5935 0.617758 -7.92043e-006 19.8425 3.69162e-006 7.84077 -1.43562 -20.7931 -72.0648 39.0385 39.3397 33.3638 2.10361 14.835 0.588946 0.308273 6.35287 -99.6409 81.413 100.35 -0.0181409 3.00645e-005 -0.117315 -0.124139 0.00241111 -0.799296 -79.8382 79.5773 80.5374 -0.000260633 -0.000218579 2.35931e-005 -0.000956209 0.000122979 -2.72899e-005 -66.7416 80.4058 67.2171 -0.000437118 1.48679e-005 -2.72986e-005 -0.000136585 -0.000109301 -5.46115e-005 -6.42159 81.2158 8.01779 -0.000218551 1.95637e-005 0.000212319 0.000901604 -0.000191266 -0.000218536 0.000811311 0.56661 89.91 -66.8447 4.29212 -20.2559 2.26019e-006 4.87885 -1.06245e-007 93.4872 0.413597 -0.00820144 3.15728e-008 0.498181 4.91138e-009 -50.0176 3.79938 -3.14196 -35.4947 3.21777e-007 5.03026e-007 -180 -0.566579 -90.09 -73.8309 2.14793 -12.105 3.82032e-007 1.22874 1.01103e-009 92.5263 2.09599 -0.00793918 5.03041e-007 3.02111 3.01817e-007 -37.8845 0.514274 -0.152852 -35.4947 1.83459e-007 -1.3212e-007 
